<?xml version="1.0" standalone="no"?>
<!DOCTYPE svg PUBLIC "-//W3C//DTD SVG 20010904//EN"
 "http://www.w3.org/TR/2001/REC-SVG-20010904/DTD/svg10.dtd">
<svg version="1.0" xmlns="http://www.w3.org/2000/svg"
 width="512.000000pt" height="512.000000pt" viewBox="0 0 512.000000 512.000000"
 preserveAspectRatio="xMidYMid meet">
<metadata>
Created by potrace 1.14, written by Peter Selinger 2001-2017
</metadata>
<g transform="translate(0.000000,512.000000) scale(0.100000,-0.100000)"
fill="#000000" stroke="none">
<path d="M1648 5101 c-14 -12 -30 -33 -35 -48 -7 -22 -9 -253 -4 -371 1 -13
14 -37 30 -53 40 -40 89 -40 133 0 l32 29 2 183 c0 101 -3 196 -8 211 -21 61
-101 87 -150 49z"/>
<path d="M524 4634 c-48 -24 -67 -80 -43 -127 19 -35 255 -266 284 -277 28
-11 71 -4 93 13 7 6 20 24 28 40 28 53 12 81 -125 218 -158 159 -171 166 -237
133z"/>
<path d="M2796 4638 c-11 -6 -75 -66 -143 -134 -135 -134 -152 -163 -128 -220
15 -35 60 -65 91 -59 10 2 25 4 33 4 8 1 74 60 148 133 143 142 158 168 133
229 -21 49 -89 74 -134 47z"/>
<path d="M1630 4352 c-75 -6 -192 -34 -267 -64 -172 -69 -270 -145 -418 -321
-21 -24 -72 -113 -98 -170 -112 -246 -105 -557 18 -801 l34 -68 -48 -57 c-254
-294 -292 -732 -94 -1066 55 -92 158 -210 224 -258 179 -129 347 -191 526
-196 l48 -1 -148 -148 c-94 -94 -150 -158 -156 -178 -9 -33 5 -80 30 -100 21
-17 72 -26 98 -16 12 4 120 106 240 225 l218 217 377 -2 377 -3 -139 -140
c-76 -77 -144 -150 -151 -162 -20 -39 -13 -73 23 -109 36 -36 70 -43 109 -22
12 6 118 107 236 225 l213 213 374 0 c206 0 374 -3 374 -6 0 -3 -65 -71 -144
-151 -147 -148 -163 -172 -144 -222 21 -58 81 -85 129 -61 13 7 121 108 239
226 l215 213 185 2 c232 1 330 18 470 81 44 20 171 98 196 121 200 185 297
354 333 582 15 94 6 278 -18 370 -78 295 -308 543 -596 643 -138 48 -338 61
-483 32 -34 -7 -64 -11 -66 -9 -2 2 -6 18 -9 34 -18 115 -63 194 -111 196 -89
5 -138 -61 -109 -146 17 -50 33 -117 39 -170 11 -90 15 -104 45 -129 37 -31
71 -33 137 -7 217 86 482 52 677 -87 145 -103 260 -282 292 -453 14 -76 8
-249 -11 -318 -69 -253 -263 -448 -518 -519 -59 -16 -165 -17 -1498 -17 -789
0 -1452 3 -1473 7 -21 5 -73 22 -116 38 -222 86 -388 280 -445 520 -21 89 -15
273 12 355 45 137 95 219 191 314 187 185 459 252 711 176 121 -36 120 -36
157 -18 41 19 51 36 58 99 46 382 288 671 650 780 144 42 390 40 507 -5 31
-12 74 -6 104 14 21 14 42 58 38 83 -1 6 -2 18 -3 26 -5 59 -152 105 -361 113
-141 6 -266 -11 -383 -52 l-69 -24 -30 35 c-147 167 -293 258 -498 309 -88 22
-216 34 -300 27z m182 -207 c75 -8 193 -50 268 -94 65 -39 190 -144 190 -160
0 -4 -21 -23 -47 -42 -82 -58 -208 -191 -266 -279 -83 -128 -109 -190 -163
-388 -3 -10 -13 -12 -35 -7 -99 22 -279 27 -364 10 -83 -16 -159 -42 -243 -81
-51 -24 -94 -44 -96 -44 -12 0 -68 163 -82 240 -21 116 4 301 57 417 83 185
254 339 445 399 116 37 200 44 336 29z"/>
<path d="M3514 3769 c-79 -40 -60 -162 29 -184 86 -22 153 92 94 160 -25 30
-88 42 -123 24z"/>
<path d="M49 3498 c-60 -37 -63 -120 -6 -162 27 -20 41 -21 224 -21 l195 0 29
33 c40 44 40 93 0 133 -16 16 -38 30 -48 30 -10 1 -96 2 -192 3 -150 1 -177
-1 -202 -16z"/>
<path d="M1719 636 c-28 -14 -472 -456 -496 -493 -35 -53 12 -130 86 -140 l42
-6 240 239 c132 132 247 251 255 266 21 41 17 74 -13 108 -32 36 -77 46 -114
26z"/>
<path d="M2753 630 c-55 -35 -483 -474 -492 -505 -21 -73 54 -144 127 -121 28
9 495 480 508 513 33 84 -65 162 -143 113z"/>
<path d="M3810 639 c-38 -16 -498 -482 -506 -513 -18 -73 49 -140 123 -121 33
8 498 471 513 510 30 78 -52 156 -130 124z"/>
</g>
</svg>
